<mxfile host="app.diagrams.net" modified="2021-08-20T16:51:45.206Z" agent="5.0 (Windows NT 6.1; Win64; x64) AppleWebKit/537.36 (KHTML, like Gecko) Chrome/92.0.4515.159 Safari/537.36" etag="GON7n2nCnplvHJ5IXqEV" version="14.9.8" type="github">
  <diagram id="C5RBs43oDa-KdzZeNtuy" name="Page-1">
    <mxGraphModel dx="868" dy="1311" grid="1" gridSize="10" guides="1" tooltips="1" connect="1" arrows="1" fold="1" page="1" pageScale="1" pageWidth="1169" pageHeight="827" math="0" shadow="0">
      <root>
        <mxCell id="WIyWlLk6GJQsqaUBKTNV-0" />
        <mxCell id="WIyWlLk6GJQsqaUBKTNV-1" parent="WIyWlLk6GJQsqaUBKTNV-0" />
        <mxCell id="zkfFHV4jXpPFQw0GAbJ--0" value="AtraccionTuristica&#xa;" style="swimlane;fontStyle=1;align=center;verticalAlign=top;childLayout=stackLayout;horizontal=1;startSize=26;horizontalStack=0;resizeParent=1;resizeLast=0;collapsible=1;marginBottom=0;rounded=0;shadow=0;strokeWidth=1;fillColor=#FFFFFF;swimlaneFillColor=#ffffff;" parent="WIyWlLk6GJQsqaUBKTNV-1" vertex="1">
          <mxGeometry x="40" y="40" width="200" height="200" as="geometry">
            <mxRectangle x="160" y="40" width="160" height="26" as="alternateBounds" />
          </mxGeometry>
        </mxCell>
        <mxCell id="_Di9qh0zENkQAbOmcLGB-2" value="- costoVisita: Integer" style="text;html=1;strokeColor=none;fillColor=none;align=left;verticalAlign=middle;whiteSpace=wrap;rounded=0;" parent="zkfFHV4jXpPFQw0GAbJ--0" vertex="1">
          <mxGeometry y="26" width="200" height="20" as="geometry" />
        </mxCell>
        <mxCell id="_Di9qh0zENkQAbOmcLGB-3" value="-tiempoNecesario: Double" style="text;html=1;strokeColor=none;fillColor=none;align=left;verticalAlign=middle;whiteSpace=wrap;rounded=0;" parent="zkfFHV4jXpPFQw0GAbJ--0" vertex="1">
          <mxGeometry y="46" width="200" height="20" as="geometry" />
        </mxCell>
        <mxCell id="_Di9qh0zENkQAbOmcLGB-4" value="-tipoDeAtraccion: Enum" style="text;html=1;strokeColor=none;fillColor=none;align=left;verticalAlign=middle;whiteSpace=wrap;rounded=0;" parent="zkfFHV4jXpPFQw0GAbJ--0" vertex="1">
          <mxGeometry y="66" width="200" height="20" as="geometry" />
        </mxCell>
        <mxCell id="_Di9qh0zENkQAbOmcLGB-37" value="-cupoPersonas: Integer" style="text;html=1;strokeColor=none;fillColor=none;align=left;verticalAlign=middle;whiteSpace=wrap;rounded=0;" parent="zkfFHV4jXpPFQw0GAbJ--0" vertex="1">
          <mxGeometry y="86" width="200" height="20" as="geometry" />
        </mxCell>
        <mxCell id="zkfFHV4jXpPFQw0GAbJ--4" value="" style="line;html=1;strokeWidth=1;align=left;verticalAlign=middle;spacingTop=-1;spacingLeft=3;spacingRight=3;rotatable=0;labelPosition=right;points=[];portConstraint=eastwest;" parent="zkfFHV4jXpPFQw0GAbJ--0" vertex="1">
          <mxGeometry y="106" width="200" height="32" as="geometry" />
        </mxCell>
        <mxCell id="_Di9qh0zENkQAbOmcLGB-6" value="Usuario" style="swimlane;fontStyle=1;align=center;verticalAlign=top;childLayout=stackLayout;horizontal=1;startSize=26;horizontalStack=0;resizeParent=1;resizeLast=0;collapsible=1;marginBottom=0;rounded=0;shadow=0;strokeWidth=1;fillColor=#FFFFFF;swimlaneFillColor=#ffffff;" parent="WIyWlLk6GJQsqaUBKTNV-1" vertex="1">
          <mxGeometry x="280" y="40" width="200" height="200" as="geometry">
            <mxRectangle x="160" y="40" width="160" height="26" as="alternateBounds" />
          </mxGeometry>
        </mxCell>
        <mxCell id="_Di9qh0zENkQAbOmcLGB-7" value="-presupuesto: Integer" style="text;html=1;strokeColor=none;fillColor=none;align=left;verticalAlign=middle;whiteSpace=wrap;rounded=0;" parent="_Di9qh0zENkQAbOmcLGB-6" vertex="1">
          <mxGeometry y="26" width="200" height="20" as="geometry" />
        </mxCell>
        <mxCell id="_Di9qh0zENkQAbOmcLGB-8" value="-tiempoDisponible: Double" style="text;html=1;strokeColor=none;fillColor=none;align=left;verticalAlign=middle;whiteSpace=wrap;rounded=0;" parent="_Di9qh0zENkQAbOmcLGB-6" vertex="1">
          <mxGeometry y="46" width="200" height="20" as="geometry" />
        </mxCell>
        <mxCell id="_Di9qh0zENkQAbOmcLGB-9" value="-atracPreferida: Enum" style="text;html=1;strokeColor=none;fillColor=none;align=left;verticalAlign=middle;whiteSpace=wrap;rounded=0;" parent="_Di9qh0zENkQAbOmcLGB-6" vertex="1">
          <mxGeometry y="66" width="200" height="20" as="geometry" />
        </mxCell>
        <mxCell id="_Di9qh0zENkQAbOmcLGB-10" value="" style="line;html=1;strokeWidth=1;align=left;verticalAlign=middle;spacingTop=-1;spacingLeft=3;spacingRight=3;rotatable=0;labelPosition=right;points=[];portConstraint=eastwest;" parent="_Di9qh0zENkQAbOmcLGB-6" vertex="1">
          <mxGeometry y="86" width="200" height="64" as="geometry" />
        </mxCell>
        <mxCell id="_Di9qh0zENkQAbOmcLGB-11" value="Promocionable" style="swimlane;fontStyle=1;align=center;verticalAlign=top;childLayout=stackLayout;horizontal=1;startSize=26;horizontalStack=0;resizeParent=1;resizeLast=0;collapsible=1;marginBottom=0;rounded=0;shadow=0;strokeWidth=1;fillColor=#FFFFFF;swimlaneFillColor=#ffffff;" parent="WIyWlLk6GJQsqaUBKTNV-1" vertex="1">
          <mxGeometry x="160" y="-360" width="290" height="230" as="geometry">
            <mxRectangle x="160" y="40" width="160" height="26" as="alternateBounds" />
          </mxGeometry>
        </mxCell>
        <mxCell id="_Di9qh0zENkQAbOmcLGB-15" value="" style="line;html=1;strokeWidth=1;align=left;verticalAlign=middle;spacingTop=-1;spacingLeft=3;spacingRight=3;rotatable=0;labelPosition=right;points=[];portConstraint=eastwest;" parent="_Di9qh0zENkQAbOmcLGB-11" vertex="1">
          <mxGeometry y="26" width="290" height="74" as="geometry" />
        </mxCell>
        <mxCell id="nXski6HvhP06RdveChtW-16" value="+ promocionPorcentual (AtraccionTuristica [], Usuario)" style="text;html=1;strokeColor=none;fillColor=none;align=left;verticalAlign=middle;whiteSpace=wrap;rounded=0;" vertex="1" parent="_Di9qh0zENkQAbOmcLGB-11">
          <mxGeometry y="100" width="290" height="40" as="geometry" />
        </mxCell>
        <mxCell id="nXski6HvhP06RdveChtW-17" value="+ promocionAbsoluta (AtraccionTuristica [], Usuario)" style="text;html=1;strokeColor=none;fillColor=none;align=left;verticalAlign=middle;whiteSpace=wrap;rounded=0;" vertex="1" parent="_Di9qh0zENkQAbOmcLGB-11">
          <mxGeometry y="140" width="290" height="40" as="geometry" />
        </mxCell>
        <mxCell id="nXski6HvhP06RdveChtW-15" value="+ promocionAxB (AtraccionTuristica [], Usuario)" style="text;html=1;strokeColor=none;fillColor=none;align=left;verticalAlign=middle;whiteSpace=wrap;rounded=0;" vertex="1" parent="_Di9qh0zENkQAbOmcLGB-11">
          <mxGeometry y="180" width="290" height="40" as="geometry" />
        </mxCell>
        <mxCell id="nXski6HvhP06RdveChtW-10" value="" style="endArrow=none;dashed=1;html=1;" edge="1" parent="WIyWlLk6GJQsqaUBKTNV-1">
          <mxGeometry width="50" height="50" relative="1" as="geometry">
            <mxPoint x="280" y="-130" as="sourcePoint" />
            <mxPoint x="280" y="-80" as="targetPoint" />
          </mxGeometry>
        </mxCell>
        <mxCell id="nXski6HvhP06RdveChtW-11" value="" style="endArrow=none;dashed=1;html=1;" edge="1" parent="WIyWlLk6GJQsqaUBKTNV-1">
          <mxGeometry width="50" height="50" relative="1" as="geometry">
            <mxPoint x="160" y="-80" as="sourcePoint" />
            <mxPoint x="400" y="-80" as="targetPoint" />
          </mxGeometry>
        </mxCell>
        <mxCell id="nXski6HvhP06RdveChtW-13" value="" style="endArrow=none;dashed=1;html=1;" edge="1" parent="WIyWlLk6GJQsqaUBKTNV-1">
          <mxGeometry width="50" height="50" relative="1" as="geometry">
            <mxPoint x="400" y="20" as="sourcePoint" />
            <mxPoint x="400" y="-80" as="targetPoint" />
          </mxGeometry>
        </mxCell>
        <mxCell id="nXski6HvhP06RdveChtW-14" value="" style="endArrow=none;dashed=1;html=1;" edge="1" parent="WIyWlLk6GJQsqaUBKTNV-1">
          <mxGeometry width="50" height="50" relative="1" as="geometry">
            <mxPoint x="160" y="20" as="sourcePoint" />
            <mxPoint x="160" y="-80" as="targetPoint" />
          </mxGeometry>
        </mxCell>
      </root>
    </mxGraphModel>
  </diagram>
</mxfile>
